<?xml version="1.0" encoding="iso-8859-1"?>
<!-- Uploaded to: SVG Repo, www.svgrepo.com, Generator: SVG Repo Mixer Tools -->
<svg version="1.1" id="Layer_1" xmlns="http://www.w3.org/2000/svg" xmlns:xlink="http://www.w3.org/1999/xlink" 
	 viewBox="0 0 508 508" xml:space="preserve">
<circle style="fill:#90DFAA;" cx="254" cy="254" r="254"/>
<rect x="154.4" y="111.6" style="fill:#324A5E;" width="29.6" height="56.8"/>
<polygon style="fill:#FFFFFF;" points="375.2,212 374.8,211.6 254,126 133.2,211.6 132.8,212 133.2,212 133.2,356 374.8,356 
	374.8,212 "/>
<g>
	<polygon style="fill:#FF7058;" points="374.8,212 424,212 254,91.6 84,212 133.2,212 254,126 	"/>
	<rect x="147.2" y="100.8" style="fill:#FF7058;" width="44" height="18"/>
</g>
<path style="fill:#324A5E;" d="M259.2,301.2v16.4H248v-16c-10.4,0-19.6-2.4-28.4-6.8V274c2.8,2.4,7.2,4.4,13.2,6.4
	c5.6,2,10.8,3.2,15.6,3.6v-27.6c-11.6-4.4-20-9.2-24-14.4c-4.4-5.2-6.4-11.2-6.4-18.8c0-8,2.8-14.8,8.4-20.4
	c5.6-5.6,13.2-8.8,22.4-9.6v-14H260v13.6c10.8,0.4,18.4,2.4,24,5.2v20.4c-7.2-4.4-14.8-6.8-24-8v28.8c11.2,4,18.8,8.4,23.6,13.6
	c4.8,5.2,7.2,11.2,7.2,18.4c0,8.4-2.8,15.2-8,20.4C276.8,297.2,269.2,300.4,259.2,301.2z M248.4,235.2v-24
	c-7.2,1.2-10.4,4.8-10.4,10.8C238,227.2,241.2,231.6,248.4,235.2z M259.2,260.8v22.8c7.2-1.2,10.8-4.8,10.8-10.8
	C270,268,266.4,264,259.2,260.8z"/>
<rect x="120.8" y="353.2" style="fill:#FF7058;" width="266" height="23.6"/>
</svg>